/* XPM */
static char * tecploticon_xpm[] = {
"48 48 256 2",
"  	c None",
". 	c #8D8DBA",
"+ 	c #9797C6",
"@ 	c #9A9ACA",
"# 	c #7D7DA6",
"$ 	c #8B8BB8",
"% 	c #9797C8",
"& 	c #A1A1D5",
"* 	c #A8A8DD",
"= 	c #B1B1E9",
"- 	c #B3B3EC",
"; 	c #AFAFE5",
"> 	c #6A6A8D",
", 	c #7A7AA2",
"' 	c #8787B2",
") 	c #9494C2",
"! 	c #A2A2D1",
"~ 	c #BEBEF5",
"{ 	c #C6C6FE",
"] 	c #D2D2FF",
"^ 	c #C9C9FF",
"/ 	c #BEBEFB",
"( 	c #606080",
"_ 	c #717195",
": 	c #7E7EA8",
"< 	c #AEAEE2",
"[ 	c #D6D6FF",
"} 	c #E6E6FF",
"| 	c #F1F1FF",
"1 	c #FAFAFF",
"2 	c #EDEDFF",
"3 	c #E2E2FF",
"4 	c #666688",
"5 	c #75759B",
"6 	c #8282AC",
"7 	c #9292BE",
"8 	c #B3B3E4",
"9 	c #CDCDFF",
"0 	c #E9E9FF",
"a 	c #FFFFFF",
"b 	c #5858B0",
"c 	c #6262C2",
"d 	c #6767CA",
"e 	c #6D6DD7",
"f 	c #7171DE",
"g 	c #69698A",
"h 	c #76769C",
"i 	c #A5A5D3",
"j 	c #C3C3F6",
"k 	c #4F4F9D",
"l 	c #6161BE",
"m 	c #6B6BCC",
"n 	c #7A7AEA",
"o 	c #8484F6",
"p 	c #8585FA",
"q 	c #7D7DF4",
"r 	c #8585AF",
"s 	c #AAAADA",
"t 	c #C6C6F8",
"u 	c #F5F5FF",
"v 	c #4B4B94",
"w 	c #5656A9",
"x 	c #5E5EBA",
"y 	c #7272D9",
"z 	c #8181EE",
"A 	c #9292FF",
"B 	c #A2A2FF",
"C 	c #9D9DFF",
"D 	c #8A8AFF",
"E 	c #7A7AF1",
"F 	c #656586",
"G 	c #45458A",
"H 	c #5757AD",
"I 	c #6E6ED1",
"J 	c #8282E6",
"K 	c #A9A9FF",
"L 	c #C1C1FF",
"M 	c #ADADFF",
"N 	c #5F5FBD",
"O 	c #6464C6",
"P 	c #6A6AD1",
"Q 	c #6E6EDA",
"R 	c #C1C1F2",
"S 	c #404080",
"T 	c #47478D",
"U 	c #5252A1",
"V 	c #5959AE",
"W 	c #6666C1",
"X 	c #7878DB",
"Y 	c #8E8EF5",
"Z 	c #BDBDFF",
"` 	c #B5B5FF",
" .	c #8E8EFF",
"..	c #7C7CE4",
"+.	c #8181F2",
"@.	c #8383F5",
"#.	c #7D7DF3",
"$.	c #BCBCEC",
"%.	c #D9D9FF",
"&.	c #50509D",
"*.	c #6969C6",
"=.	c #7E7EDF",
"-.	c #9797FF",
";.	c #8585FF",
">.	c #48488E",
",.	c #5353A5",
"'.	c #5B5BB5",
").	c #7272D6",
"!.	c #8080EA",
"~.	c #8B8BF9",
"{.	c #9999FF",
"].	c #4E4E99",
"^.	c #7878DE",
"/.	c #8D8DF8",
"(.	c #B9B9FF",
"_.	c #B0B0FF",
":.	c #7D7DFD",
"<.	c #7D7DDA",
"[.	c #9898FB",
"}.	c #7777EB",
"|.	c #8686ED",
"1.	c #DEDEFF",
"2.	c #1E1EA5",
"3.	c #2222B6",
"4.	c #2424C5",
"5.	c #2929D3",
"6.	c #2B2BDC",
"7.	c #2C2CE4",
"8.	c #2D2DEB",
"9.	c #7979D6",
"0.	c #9292F4",
"a.	c #7979EE",
"b.	c #7676D4",
"c.	c #19198A",
"d.	c #1C1CA1",
"e.	c #2020B3",
"f.	c #2424C3",
"g.	c #3333E5",
"h.	c #3B3BF2",
"i.	c #4242FE",
"j.	c #3A3AFE",
"k.	c #3030F6",
"l.	c #A5A5FF",
"m.	c #6666BE",
"n.	c #8F8FF3",
"o.	c #171780",
"p.	c #1B1B99",
"q.	c #1E1EA8",
"r.	c #2222B9",
"s.	c #2A2ACA",
"t.	c #3535DF",
"u.	c #4343F6",
"v.	c #5353FE",
"w.	c #5959FD",
"x.	c #6666FF",
"y.	c #5D5DFF",
"z.	c #4A4AFF",
"A.	c #3535FF",
"B.	c #7575E2",
"C.	c #434385",
"D.	c #4C4C96",
"E.	c #5555A5",
"F.	c #6464BA",
"G.	c #1D1D9D",
"H.	c #2121AD",
"I.	c #2626BF",
"J.	c #2F2FD1",
"K.	c #4242ED",
"L.	c #5656FF",
"M.	c #8181FF",
"N.	c #6F6FFF",
"O.	c #7E7EEF",
"P.	c #6161B6",
"Q.	c #7171CC",
"R.	c #8787E6",
"S.	c #19198E",
"T.	c #2A2AC2",
"U.	c #3737DA",
"V.	c #4C4CF3",
"W.	c #6363FF",
"X.	c #7272FF",
"Y.	c #4D4DFE",
"Z.	c #2E2EF3",
"`.	c #5C5CAE",
" +	c #6969C1",
".+	c #8181DF",
"++	c #2D2DC2",
"@+	c #3C3CDB",
"#+	c #5151F9",
"$+	c #8B8BED",
"%+	c #7676D2",
"&+	c #1C1C9A",
"*+	c #5454FA",
"=+	c #4545FF",
"-+	c #7272D2",
";+	c #6868BF",
">+	c #2323A9",
",+	c #2B2BBD",
"'+	c #3A3AD5",
")+	c #5050F2",
"!+	c #6161BA",
"~+	c #444487",
"{+	c #494991",
"]+	c #5454A2",
"^+	c #5E5EB2",
"/+	c #6E6EC7",
"(+	c #1B1B94",
"_+	c #2020A5",
":+	c #2929B5",
"<+	c #3636CC",
"[+	c #4C4CEA",
"}+	c #8686EB",
"|+	c #8989F1",
"1+	c #2525AE",
"2+	c #3131C2",
"3+	c #4343DD",
"4+	c #6868FF",
"5+	c #181885",
"6+	c #1D1D96",
"7+	c #3838CD",
"8+	c #4848E4",
"9+	c #7474FF",
"0+	c #5F5FB6",
"a+	c #2E2EBE",
"b+	c #3A3AD0",
"c+	c #3232EB",
"d+	c #2727D7",
"e+	c #B6B6F1",
"f+	c #1A1A92",
"g+	c #2020A2",
"h+	c #4646E4",
"i+	c #2323C7",
"j+	c #1C1C93",
"k+	c #3D3DE2",
"l+	c #3333DF",
"m+	c #2626CA",
"n+	c #737399",
"o+	c #2D2DC7",
"p+	c #2323C2",
"q+	c #8181AA",
"r+	c #AAAAE1",
"s+	c #6E6E92",
"t+	c #8A8AB5",
"u+	c #9D9DCB",
"v+	c #9494FB",
"w+	c #BBBBF0",
"x+	c #A5A5D9",
"y+	c #AEAEDE",
"z+	c #C7C7F7",
"A+	c #9E9ED1",
"B+	c #9191C1",
"C+	c #78789E",
"D+	c #C8C8FB",
"E+	c #5858A9",
"F+	c #8282E0",
"G+	c #8484F3",
"                                                                                                ",
"                                      . + @                                                     ",
"                                # $ % & * = - - ;                                               ",
"                            > , ' ) ! ; ~ { ] ] ^ /                                             ",
"                          ( _ : . @ < ~ [ } | 1 2 3 ^                                           ",
"                        ( 4 5 6 7 ! 8 9 0 a a a a a 0 ^         b c d e f f                     ",
"                        ( g h 6 7 i j 3 a a a a a a a } /   k b l m f n o p p q                 ",
"                      ( ( g h r ) s t 0 a a a a a a a u 9 v w x d y z A B B B C D E             ",
"                      ( ( F 5 6 ) s t 2 a a a a a a a a G k H l I J A K L ^ ^ L M A E           ",
"                    w N O P Q f . i R } a a a a a a a S T U V W X Y K Z [ 2 | 0 [ `  .          ",
"                v w x d e ..+.@.p #.$.%.a a a a a a a S T &.V *.=.-.` [ u a a a 1 9 K ;.        ",
"              >.,.'.O ).!.~.-.B B C  .q } a a a a a a S T &.V *.=.{.Z 3 a a a a a 0 Z A         ",
"            S ].w x m ^./.B (.L ^ L _.{.:.} a a a a S S G ].V W <.[.(.3 a a a a a 2 L {.}.      ",
"          S G ].w l ).|.C Z ] 0 | 2 %.(.{.^ 1.} 2.3.4.5.6.7.8.8.9.0._.] u a a a a 0 L -.a.      ",
"          S G k V l b.Y K 9 0 a a a 1 [ _.D c.d.e.f.5.g.h.i.i.i.j.k.l.L 3 a a a u 1.` -.a.      ",
"        S S G ].w m.b.n._.[ 1 a a a a | { o.p.q.r.s.t.u.v.w.x.x.y.z.A.M { 1.0 } [ ^ l. .B.      ",
"        S S C.D.E.F.b.0.M ] 1 a a a a 1 9 c.G.H.I.J.K.L.x.:. . .M.N.v.A.M Z L { (.K A O.Q       ",
"        S S C.v U P.Q.R.K ^ | a a a a u o.S.G.H.T.U.V.W.:.C l.` M -.X.Y.Z.{.B l.{.A z f d       ",
"        S S S T &.`. +.+C ` %.u a a a 3 o.S.G.H.++@+#+N. .M L 9 { _.D x.j.J $+|.!...f P         ",
"        S S S G D.E.F.%+$+l.Z [ 0 0 1.o.o.c.&+H.++@+*+X.A ` 9 1.[ L C X.=+m -+I I I d l         ",
"        S S S S >.U `.;+<.0.l.(.L { Z o.o.c.&+>+,+'+)+N.A M ^ %.[ { B X.Y.Z.!+l l l x           ",
"        S S S S ~+{+]+^+/+<.$+{.l.l.B o.o.o.(+_+:+<+[+x.;.l.Z 9 ^ Z C X.Y.Z.w H H V k           ",
"        S S S S S G ].E.P./+b.=.}+|+|.o.o.o.S.G.1+2+3+w.X. .C M M B D 4+=+8.].&.k v             ",
"          S S S S S >.].E.^+m.*.-+-+I o.o.o.5+6+>+:+7+8+y.9+D  . .;.X.L.j.7.G C.a } L           ",
"          S S S S S S T ].U V 0+!+l l o.o.o.o.S.G.1+a+b+[+w.4+X.N.4+L.i.c+d+a a a a 1.e+        ",
"            S S S S S S G v k E.w H V o.o.o.o.5+f+g+1+a+b+h+V.v.L.Y.u.g.6.i+a a a a | ^         ",
"            ( S S S S S S ~+{+v ].&.k o.o.o.o.o.c.j+g+1+a+<+'+k+k+t.l+5.m+a a a a a a [         ",
"          ( F n+S S S S S S S C.G G a 0 o.o.o.o.o.c.6+g+1+:+,+o+s.s.m+p+r.a a a a a a [ e+      ",
"          ( 4 5 q+7 i $.S S S a a a a a o.o.o.o.o.o.c.(+G._+H.3.3.r.r.e.a a a a a a 1 ] e+      ",
"        ( ( 4 n+q+7 s t 3 a a a a a a a u o.o.o.o.o.o.5+S.p.G.2.q.q.2.0 a a a a a a 0 9 =       ",
"        ( ( 4 n+q+7 s t 0 a a a a a a a a C.o.o.o.o.o.o.o.5+S.f+(+f+A q 2 a a a a u [ ~ r+      ",
"        ( ( F _ # 7 i R 3 a a a a a a a S T k V o.o.o.o.o.o.o.o.0 [ ` A ^ %.} } } ] { = &       ",
"        ( ( ( s+, t+u+$.1.a a a a a a a S G &.V *.=.v+K 9 | a a a u [ K ;.R t ^ { w+< x+        ",
"        ( ( ( g h q+) y+z+} a a a a a a S T k V  +..{.Z [ 1 a a a a 0 (.A ! y+8 y+s A+%         ",
"        ( ( ( ( _ # t+u+8 ] } u a a a S S G ].V W <.[.(.1.1 a a a a | { {.a.+ @ @ % B+'         ",
"        ( ( ( ( g 5 q+7 ! 8 ^ %.} } 0 S S C.D.w F.%+0._.] | a a a a | ^ C #.t+t+t+t+6           ",
"        ( ( ( ( ( s+C+r 7 ! 8 $.R D+{ S S S >.U ^+Q.R.l.{ %.u a a a 1.Z {.a.# # # ,             ",
"        ( ( ( ( ( F s+, r 7 u+! s 8 < S S S G ].E+ +9.0._.{ [ 0 } 1.^ K  .n s+s+s+              ",
"          ( ( ( ( ( 4 s+, r ' 7 ) u+@ S S S C.{+U ^+Q..+0.M (.{ { L M C @.f (                   ",
"          ( ( ( ( ( ( 4 s+h # 6 t+t+$ S S S S G ].E.F.Q.F+0.C C l.{.A G+B.P                     ",
"            ( ( ( ( ( ( F > _ h , # # S S S S S >.&.E+F.Q.9.=.$+}+|+..B.P                       ",
"              ( ( ( ( ( ( ( F g s+s+s+S S S S S S {+&.w 0+m.Q.Q.-+).I d c                       ",
"                  ( ( ( ( ( ( ( ( (     S S S S S C.{+].E.E+0+!+W W l N                         ",
"                          (               S S S S S S T D.&.E.w H V b ,.                        ",
"                                            S S S S S S ~+{+D.k k U D.                          ",
"                                              S S S S S S S C.~+G                               ",
"                                                  S S S S S S                                   ",
"                                                                                                "};
