  0
SECTION
  2
HEADER
  9
$DWGCODEPAGE
  3
iso8859-1
  9
$EXTMIN
 10
391793.09
 20
3759954.50
  9
$EXTMAX
 10
429955.06
 20
3785432.50
  9
$LUPREC
 70
    14
  0
ENDSEC
  0
SECTION
  2
TABLES
  0
ENDSEC
  0
SECTION
  2
BLOCKS
  0
ENDSEC
  0
SECTION
  2
ENTITIES
  0
POLYLINE
  8
0TRANS
 66
     1
  0
VERTEX
  8
0TRANS
 10
411896.78
 20
3778052.00
  0
VERTEX
  8
0TRANS
 10
411874.78
 20
3777899.00
  0
VERTEX
  8
0TRANS
 10
411840.41
 20
3777764.00
  0
VERTEX
  8
0TRANS
 10
411781.59
 20
3777602.50
  0
VERTEX
  8
0TRANS
 10
411720.28
 20
3777465.50
  0
SEQEND
  8
0TRANS
  0
POLYLINE
  8
0TRANS
 66
     1
  0
VERTEX
  8
0TRANS
 10
416309.97
 20
3776085.00
  0
VERTEX
  8
0TRANS
 10
416305.28
 20
3775918.00
  0
SEQEND
  8
0TRANS
  0
POLYLINE
  8
0TRANS
 66
     1
  0
VERTEX
  8
0TRANS
 10
427303.59
 20
3775733.00
  0
VERTEX
  8
0TRANS
 10
427456.41
 20
3775733.50
  0
VERTEX
  8
0TRANS
 10
427488.78
 20
3775740.00
  0
SEQEND
  8
0TRANS
  0
POLYLINE
  8
0TRANS
 66
     1
  0
VERTEX
  8
0TRANS
 10
429955.06
 20
3775902.00
  0
VERTEX
  8
0TRANS
 10
427282.97
 20
3775916.00
  0
VERTEX
  8
0TRANS
 10
427247.91
 20
3775929.50
  0
VERTEX
  8
0TRANS
 10
427247.91
 20
3775929.50
  0
VERTEX
  8
0TRANS
 10
427230.84
 20
3775928.50
  0
VERTEX
  8
0TRANS
 10
427197.66
 20
3775912.00
  0
VERTEX
  8
0TRANS
 10
427198.78
 20
3775905.50
  0
VERTEX
  8
0TRANS
 10
427219.22
 20
3775892.50
  0
VERTEX
  8
0TRANS
 10
427737.47
 20
3775685.50
  0
SEQEND
  8
0TRANS
  0
POLYLINE
  8
0TRANS
 66
     1
  0
VERTEX
  8
0TRANS
 10
427303.59
 20
3775733.00
  0
VERTEX
  8
0TRANS
 10
427347.03
 20
3775710.00
  0
VERTEX
  8
0TRANS
 10
427413.72
 20
3775691.00
  0
VERTEX
  8
0TRANS
 10
427583.66
 20
3775663.50
  0
VERTEX
  8
0TRANS
 10
427734.22
 20
3775673.00
  0
VERTEX
  8
0TRANS
 10
427737.47
 20
3775685.50
  0
SEQEND
  8
0TRANS
  0
POLYLINE
  8
0TRANS
 66
     1
  0
VERTEX
  8
0TRANS
 10
427737.47
 20
3775685.50
  0
VERTEX
  8
0TRANS
 10
428809.78
 20
3775237.50
  0
VERTEX
  8
0TRANS
 10
429388.91
 20
3775007.00
  0
SEQEND
  8
0TRANS
  0
POLYLINE
  8
0TRANS
 66
     1
  0
VERTEX
  8
0TRANS
 10
392866.41
 20
3771077.75
  0
VERTEX
  8
0TRANS
 10
392866.78
 20
3770871.25
  0
VERTEX
  8
0TRANS
 10
392857.47
 20
3770766.75
  0
VERTEX
  8
0TRANS
 10
392820.59
 20
3770638.75
  0
VERTEX
  8
0TRANS
 10
392571.72
 20
3770074.75
  0
VERTEX
  8
0TRANS
 10
392538.03
 20
3769959.75
  0
VERTEX
  8
0TRANS
 10
392500.34
 20
3769770.75
  0
VERTEX
  8
0TRANS
 10
392474.91
 20
3769606.25
  0
VERTEX
  8
0TRANS
 10
392473.84
 20
3769563.75
  0
SEQEND
  8
0TRANS
  0
POLYLINE
  8
0TRANS
 66
     1
  0
VERTEX
  8
0TRANS
 10
391793.09
 20
3769568.75
  0
VERTEX
  8
0TRANS
 10
391841.50
 20
3769595.25
  0
VERTEX
  8
0TRANS
 10
391969.88
 20
3769646.25
  0
VERTEX
  8
0TRANS
 10
392048.81
 20
3769663.25
  0
VERTEX
  8
0TRANS
 10
392048.81
 20
3769663.25
  0
VERTEX
  8
0TRANS
 10
392132.19
 20
3769649.25
  0
VERTEX
  8
0TRANS
 10
392421.59
 20
3769556.25
  0
VERTEX
  8
0TRANS
 10
392473.84
 20
3769563.75
  0
SEQEND
  8
0TRANS
  0
POLYLINE
  8
0TRANS
 66
     1
  0
VERTEX
  8
0TRANS
 10
392448.84
 20
3769205.25
  0
VERTEX
  8
0TRANS
 10
392440.91
 20
3769238.75
  0
VERTEX
  8
0TRANS
 10
392443.22
 20
3769336.75
  0
VERTEX
  8
0TRANS
 10
392473.84
 20
3769563.75
  0
SEQEND
  8
0TRANS
  0
POLYLINE
  8
0TRANS
 66
     1
  0
VERTEX
  8
0TRANS
 10
427362.41
 20
3765282.00
  0
VERTEX
  8
0TRANS
 10
427225.66
 20
3765315.50
  0
VERTEX
  8
0TRANS
 10
426988.91
 20
3765389.50
  0
VERTEX
  8
0TRANS
 10
426569.53
 20
3765534.50
  0
VERTEX
  8
0TRANS
 10
426494.84
 20
3765545.50
  0
VERTEX
  8
0TRANS
 10
426494.84
 20
3765545.50
  0
VERTEX
  8
0TRANS
 10
426285.84
 20
3765536.00
  0
VERTEX
  8
0TRANS
 10
426218.06
 20
3765523.50
  0
VERTEX
  8
0TRANS
 10
425972.69
 20
3765449.50
  0
VERTEX
  8
0TRANS
 10
425908.88
 20
3765418.00
  0
VERTEX
  8
0TRANS
 10
425405.31
 20
3765230.50
  0
VERTEX
  8
0TRANS
 10
425264.88
 20
3765169.00
  0
VERTEX
  8
0TRANS
 10
425105.19
 20
3765085.50
  0
VERTEX
  8
0TRANS
 10
424974.50
 20
3764991.50
  0
VERTEX
  8
0TRANS
 10
424905.94
 20
3764924.50
  0
SEQEND
  8
0TRANS
  0
POLYLINE
  8
0TRANS
 66
     1
  0
VERTEX
  8
0TRANS
 10
425544.75
 20
3766471.00
  0
VERTEX
  8
0TRANS
 10
425447.38
 20
3766315.00
  0
VERTEX
  8
0TRANS
 10
425380.75
 20
3766193.50
  0
VERTEX
  8
0TRANS
 10
425321.94
 20
3766061.00
  0
VERTEX
  8
0TRANS
 10
425269.56
 20
3765987.00
  0
VERTEX
  8
0TRANS
 10
425133.56
 20
3765722.50
  0
VERTEX
  8
0TRANS
 10
425068.94
 20
3765535.50
  0
VERTEX
  8
0TRANS
 10
425055.63
 20
3765468.50
  0
VERTEX
  8
0TRANS
 10
425035.13
 20
3765226.50
  0
VERTEX
  8
0TRANS
 10
425023.19
 20
3765171.00
  0
VERTEX
  8
0TRANS
 10
424984.81
 20
3765060.00
  0
VERTEX
  8
0TRANS
 10
424938.88
 20
3764971.50
  0
VERTEX
  8
0TRANS
 10
424905.94
 20
3764924.50
  0
SEQEND
  8
0TRANS
  0
POLYLINE
  8
0TRANS
 66
     1
  0
VERTEX
  8
0TRANS
 10
402476.16
 20
3764187.75
  0
VERTEX
  8
0TRANS
 10
402535.47
 20
3764333.75
  0
VERTEX
  8
0TRANS
 10
402671.91
 20
3764528.75
  0
VERTEX
  8
0TRANS
 10
402793.09
 20
3764646.75
  0
VERTEX
  8
0TRANS
 10
402889.72
 20
3764712.25
  0
VERTEX
  8
0TRANS
 10
403811.44
 20
3765390.25
  0
VERTEX
  8
0TRANS
 10
404143.31
 20
3765622.50
  0
VERTEX
  8
0TRANS
 10
404740.69
 20
3766009.50
  0
VERTEX
  8
0TRANS
 10
404951.19
 20
3766189.50
  0
VERTEX
  8
0TRANS
 10
405186.00
 20
3766404.50
  0
SEQEND
  8
0TRANS
  0
POLYLINE
  8
0TRANS
 66
     1
  0
VERTEX
  8
0TRANS
 10
420274.00
 20
3785432.50
  0
VERTEX
  8
0TRANS
 10
420234.25
 20
3785370.00
  0
VERTEX
  8
0TRANS
 10
420184.06
 20
3785313.50
  0
VERTEX
  8
0TRANS
 10
420159.81
 20
3785263.00
  0
VERTEX
  8
0TRANS
 10
420150.69
 20
3785225.00
  0
VERTEX
  8
0TRANS
 10
420161.63
 20
3785158.50
  0
VERTEX
  8
0TRANS
 10
420205.19
 20
3785125.50
  0
VERTEX
  8
0TRANS
 10
420262.94
 20
3785095.50
  0
VERTEX
  8
0TRANS
 10
420368.88
 20
3785079.50
  0
VERTEX
  8
0TRANS
 10
420401.19
 20
3785066.00
  0
VERTEX
  8
0TRANS
 10
420485.25
 20
3784986.50
  0
VERTEX
  8
0TRANS
 10
420577.75
 20
3784970.50
  0
VERTEX
  8
0TRANS
 10
420652.13
 20
3784944.00
  0
VERTEX
  8
0TRANS
 10
420751.13
 20
3784935.50
  0
VERTEX
  8
0TRANS
 10
420812.25
 20
3784939.50
  0
VERTEX
  8
0TRANS
 10
420812.25
 20
3784939.50
  0
VERTEX
  8
0TRANS
 10
420874.56
 20
3784903.50
  0
VERTEX
  8
0TRANS
 10
420901.50
 20
3784866.50
  0
VERTEX
  8
0TRANS
 10
420893.50
 20
3784747.00
  0
VERTEX
  8
0TRANS
 10
420873.13
 20
3784715.00
  0
VERTEX
  8
0TRANS
 10
420826.69
 20
3784687.00
  0
VERTEX
  8
0TRANS
 10
420690.44
 20
3784667.00
  0
VERTEX
  8
0TRANS
 10
420619.56
 20
3784637.50
  0
VERTEX
  8
0TRANS
 10
420591.63
 20
3784599.50
  0
VERTEX
  8
0TRANS
 10
420534.44
 20
3784484.50
  0
VERTEX
  8
0TRANS
 10
420492.31
 20
3784312.50
  0
VERTEX
  8
0TRANS
 10
420495.31
 20
3784298.00
  0
VERTEX
  8
0TRANS
 10
420476.69
 20
3784226.00
  0
VERTEX
  8
0TRANS
 10
420431.56
 20
3784133.50
  0
VERTEX
  8
0TRANS
 10
420407.38
 20
3784033.50
  0
VERTEX
  8
0TRANS
 10
420381.81
 20
3783994.50
  0
VERTEX
  8
0TRANS
 10
420295.81
 20
3783941.00
  0
VERTEX
  8
0TRANS
 10
420264.00
 20
3783913.00
  0
VERTEX
  8
0TRANS
 10
420222.69
 20
3783850.50
  0
VERTEX
  8
0TRANS
 10
420206.63
 20
3783780.00
  0
VERTEX
  8
0TRANS
 10
420217.00
 20
3783702.00
  0
VERTEX
  8
0TRANS
 10
420233.13
 20
3783642.00
  0
VERTEX
  8
0TRANS
 10
420229.31
 20
3783625.50
  0
VERTEX
  8
0TRANS
 10
420211.00
 20
3783598.50
  0
VERTEX
  8
0TRANS
 10
420117.25
 20
3783510.00
  0
VERTEX
  8
0TRANS
 10
420035.88
 20
3783451.00
  0
VERTEX
  8
0TRANS
 10
419977.81
 20
3783422.00
  0
VERTEX
  8
0TRANS
 10
419733.28
 20
3783328.50
  0
VERTEX
  8
0TRANS
 10
419692.47
 20
3783303.00
  0
VERTEX
  8
0TRANS
 10
419657.53
 20
3783233.50
  0
VERTEX
  8
0TRANS
 10
419660.28
 20
3783056.50
  0
VERTEX
  8
0TRANS
 10
419654.28
 20
3783032.50
  0
VERTEX
  8
0TRANS
 10
419643.53
 20
3783011.00
  0
VERTEX
  8
0TRANS
 10
419584.28
 20
3782956.50
  0
VERTEX
  8
0TRANS
 10
419527.53
 20
3782916.00
  0
VERTEX
  8
0TRANS
 10
419478.97
 20
3782908.00
  0
VERTEX
  8
0TRANS
 10
419457.97
 20
3782914.50
  0
VERTEX
  8
0TRANS
 10
419365.72
 20
3782976.00
  0
VERTEX
  8
0TRANS
 10
419365.72
 20
3782976.00
  0
VERTEX
  8
0TRANS
 10
419322.78
 20
3782969.50
  0
VERTEX
  8
0TRANS
 10
419286.91
 20
3782922.00
  0
VERTEX
  8
0TRANS
 10
419217.78
 20
3782843.50
  0
VERTEX
  8
0TRANS
 10
419168.34
 20
3782842.50
  0
VERTEX
  8
0TRANS
 10
419107.59
 20
3782857.00
  0
VERTEX
  8
0TRANS
 10
419107.59
 20
3782857.00
  0
VERTEX
  8
0TRANS
 10
419080.03
 20
3782855.00
  0
VERTEX
  8
0TRANS
 10
419042.53
 20
3782841.50
  0
VERTEX
  8
0TRANS
 10
418961.34
 20
3782780.00
  0
VERTEX
  8
0TRANS
 10
418914.41
 20
3782722.00
  0
VERTEX
  8
0TRANS
 10
418875.22
 20
3782655.50
  0
VERTEX
  8
0TRANS
 10
418819.72
 20
3782626.00
  0
VERTEX
  8
0TRANS
 10
418805.84
 20
3782606.00
  0
VERTEX
  8
0TRANS
 10
418800.03
 20
3782590.00
  0
VERTEX
  8
0TRANS
 10
418797.47
 20
3782520.50
  0
VERTEX
  8
0TRANS
 10
418736.78
 20
3782417.00
  0
VERTEX
  8
0TRANS
 10
418705.72
 20
3782265.50
  0
VERTEX
  8
0TRANS
 10
418701.03
 20
3782183.00
  0
VERTEX
  8
0TRANS
 10
418683.28
 20
3782150.50
  0
VERTEX
  8
0TRANS
 10
418663.78
 20
3782091.00
  0
VERTEX
  8
0TRANS
 10
418614.47
 20
3782067.00
  0
VERTEX
  8
0TRANS
 10
418571.03
 20
3782063.00
  0
VERTEX
  8
0TRANS
 10
418540.84
 20
3782051.50
  0
VERTEX
  8
0TRANS
 10
418498.22
 20
3781994.00
  0
VERTEX
  8
0TRANS
 10
418471.66
 20
3781979.00
  0
VERTEX
  8
0TRANS
 10
418405.97
 20
3781961.00
  0
VERTEX
  8
0TRANS
 10
418370.22
 20
3781914.00
  0
VERTEX
  8
0TRANS
 10
418314.22
 20
3781861.00
  0
VERTEX
  8
0TRANS
 10
418299.09
 20
3781835.50
  0
VERTEX
  8
0TRANS
 10
418264.03
 20
3781701.50
  0
VERTEX
  8
0TRANS
 10
418209.47
 20
3781597.00
  0
VERTEX
  8
0TRANS
 10
418185.22
 20
3781512.50
  0
VERTEX
  8
0TRANS
 10
418157.69
 20
3781482.00
  0
VERTEX
  8
0TRANS
 10
418117.81
 20
3781470.50
  0
VERTEX
  8
0TRANS
 10
418070.50
 20
3781488.00
  0
VERTEX
  8
0TRANS
 10
418000.75
 20
3781540.00
  0
VERTEX
  8
0TRANS
 10
417972.25
 20
3781549.50
  0
VERTEX
  8
0TRANS
 10
417934.44
 20
3781552.50
  0
VERTEX
  8
0TRANS
 10
417934.44
 20
3781552.50
  0
VERTEX
  8
0TRANS
 10
417871.56
 20
3781522.00
  0
VERTEX
  8
0TRANS
 10
417770.88
 20
3781433.50
  0
VERTEX
  8
0TRANS
 10
417760.69
 20
3781411.50
  0
VERTEX
  8
0TRANS
 10
417755.63
 20
3781342.00
  0
VERTEX
  8
0TRANS
 10
417744.19
 20
3781288.50
  0
VERTEX
  8
0TRANS
 10
417754.75
 20
3781266.50
  0
VERTEX
  8
0TRANS
 10
417764.94
 20
3781195.50
  0
VERTEX
  8
0TRANS
 10
417756.81
 20
3781125.50
  0
VERTEX
  8
0TRANS
 10
417765.56
 20
3781011.50
  0
VERTEX
  8
0TRANS
 10
417761.94
 20
3780891.00
  0
VERTEX
  8
0TRANS
 10
417791.94
 20
3780773.00
  0
VERTEX
  8
0TRANS
 10
417769.25
 20
3780736.00
  0
VERTEX
  8
0TRANS
 10
417739.63
 20
3780720.50
  0
VERTEX
  8
0TRANS
 10
417546.44
 20
3780708.50
  0
VERTEX
  8
0TRANS
 10
417452.94
 20
3780704.00
  0
VERTEX
  8
0TRANS
 10
417398.69
 20
3780675.50
  0
VERTEX
  8
0TRANS
 10
417250.94
 20
3780461.50
  0
VERTEX
  8
0TRANS
 10
417218.38
 20
3780391.50
  0
VERTEX
  8
0TRANS
 10
417166.94
 20
3780319.50
  0
VERTEX
  8
0TRANS
 10
417087.56
 20
3780259.50
  0
VERTEX
  8
0TRANS
 10
416928.81
 20
3780167.00
  0
VERTEX
  8
0TRANS
 10
416764.19
 20
3780115.50
  0
VERTEX
  8
0TRANS
 10
416720.69
 20
3780108.00
  0
VERTEX
  8
0TRANS
 10
416670.63
 20
3780109.00
  0
VERTEX
  8
0TRANS
 10
416516.56
 20
3780159.50
  0
VERTEX
  8
0TRANS
 10
416403.50
 20
3780214.50
  0
VERTEX
  8
0TRANS
 10
416347.00
 20
3780231.00
  0
VERTEX
  8
0TRANS
 10
416283.63
 20
3780236.50
  0
VERTEX
  8
0TRANS
 10
416283.63
 20
3780236.50
  0
VERTEX
  8
0TRANS
 10
416193.66
 20
3780226.00
  0
VERTEX
  8
0TRANS
 10
416165.97
 20
3780216.50
  0
VERTEX
  8
0TRANS
 10
416104.16
 20
3780178.50
  0
VERTEX
  8
0TRANS
 10
416063.78
 20
3780142.50
  0
VERTEX
  8
0TRANS
 10
416012.41
 20
3780076.50
  0
VERTEX
  8
0TRANS
 10
415992.66
 20
3780034.50
  0
VERTEX
  8
0TRANS
 10
415978.91
 20
3779987.50
  0
VERTEX
  8
0TRANS
 10
415973.66
 20
3779937.50
  0
VERTEX
  8
0TRANS
 10
416145.91
 20
3779081.50
  0
SEQEND
  8
0TRANS
  0
POLYLINE
  8
0TRANS
 66
     1
  0
VERTEX
  8
0TRANS
 10
404639.09
 20
3779061.00
  0
VERTEX
  8
0TRANS
 10
404821.53
 20
3779037.50
  0
VERTEX
  8
0TRANS
 10
404919.28
 20
3779005.50
  0
VERTEX
  8
0TRANS
 10
405109.03
 20
3778908.50
  0
VERTEX
  8
0TRANS
 10
405511.34
 20
3778679.50
  0
VERTEX
  8
0TRANS
 10
406098.34
 20
3778324.00
  0
VERTEX
  8
0TRANS
 10
406204.22
 20
3778231.50
  0
VERTEX
  8
0TRANS
 10
406402.91
 20
3777992.00
  0
VERTEX
  8
0TRANS
 10
406503.09
 20
3777913.00
  0
VERTEX
  8
0TRANS
 10
406622.72
 20
3777835.50
  0
VERTEX
  8
0TRANS
 10
407002.84
 20
3777686.50
  0
VERTEX
  8
0TRANS
 10
407154.47
 20
3777644.50
  0
VERTEX
  8
0TRANS
 10
407714.75
 20
3777638.50
  0
VERTEX
  8
0TRANS
 10
408491.94
 20
3777632.50
  0
VERTEX
  8
0TRANS
 10
408832.00
 20
3777631.00
  0
VERTEX
  8
0TRANS
 10
409397.19
 20
3777622.50
  0
VERTEX
  8
0TRANS
 10
409639.81
 20
3777604.50
  0
VERTEX
  8
0TRANS
 10
410169.66
 20
3777597.50
  0
VERTEX
  8
0TRANS
 10
410621.78
 20
3777614.00
  0
VERTEX
  8
0TRANS
 10
410621.78
 20
3777614.00
  0
VERTEX
  8
0TRANS
 10
410982.59
 20
3777612.00
  0
VERTEX
  8
0TRANS
 10
411233.16
 20
3777594.50
  0
VERTEX
  8
0TRANS
 10
411456.03
 20
3777564.00
  0
VERTEX
  8
0TRANS
 10
411720.28
 20
3777465.50
  0
SEQEND
  8
0TRANS
  0
POLYLINE
  8
0TRANS
 66
     1
  0
VERTEX
  8
0TRANS
 10
416305.28
 20
3775918.00
  0
VERTEX
  8
0TRANS
 10
416248.53
 20
3775914.50
  0
VERTEX
  8
0TRANS
 10
416160.16
 20
3775933.50
  0
VERTEX
  8
0TRANS
 10
416032.97
 20
3775995.50
  0
VERTEX
  8
0TRANS
 10
415981.56
 20
3776028.50
  0
VERTEX
  8
0TRANS
 10
415923.44
 20
3776077.00
  0
VERTEX
  8
0TRANS
 10
415644.88
 20
3776394.00
  0
VERTEX
  8
0TRANS
 10
415499.63
 20
3776577.50
  0
VERTEX
  8
0TRANS
 10
415423.44
 20
3776645.00
  0
VERTEX
  8
0TRANS
 10
415375.81
 20
3776676.00
  0
VERTEX
  8
0TRANS
 10
415228.81
 20
3776744.00
  0
VERTEX
  8
0TRANS
 10
415022.88
 20
3776796.00
  0
VERTEX
  8
0TRANS
 10
414922.19
 20
3776828.50
  0
VERTEX
  8
0TRANS
 10
414862.88
 20
3776856.50
  0
VERTEX
  8
0TRANS
 10
414598.44
 20
3777006.50
  0
VERTEX
  8
0TRANS
 10
414497.19
 20
3777040.50
  0
VERTEX
  8
0TRANS
 10
414407.63
 20
3777052.00
  0
VERTEX
  8
0TRANS
 10
414407.63
 20
3777052.00
  0
VERTEX
  8
0TRANS
 10
414295.25
 20
3777048.50
  0
VERTEX
  8
0TRANS
 10
414068.31
 20
3776997.50
  0
VERTEX
  8
0TRANS
 10
413813.75
 20
3776938.00
  0
VERTEX
  8
0TRANS
 10
413595.69
 20
3776871.00
  0
VERTEX
  8
0TRANS
 10
413435.38
 20
3776853.50
  0
VERTEX
  8
0TRANS
 10
413313.38
 20
3776859.00
  0
VERTEX
  8
0TRANS
 10
413202.06
 20
3776880.00
  0
VERTEX
  8
0TRANS
 10
413103.81
 20
3776914.00
  0
VERTEX
  8
0TRANS
 10
412733.84
 20
3777068.00
  0
VERTEX
  8
0TRANS
 10
412459.84
 20
3777199.00
  0
VERTEX
  8
0TRANS
 10
412416.34
 20
3777223.50
  0
VERTEX
  8
0TRANS
 10
412207.47
 20
3777309.50
  0
VERTEX
  8
0TRANS
 10
411995.84
 20
3777382.50
  0
VERTEX
  8
0TRANS
 10
411720.28
 20
3777465.50
  0
SEQEND
  8
0TRANS
  0
POLYLINE
  8
0TRANS
 66
     1
  0
VERTEX
  8
0TRANS
 10
401040.41
 20
3777399.50
  0
VERTEX
  8
0TRANS
 10
401040.91
 20
3776606.50
  0
VERTEX
  8
0TRANS
 10
401046.53
 20
3776536.50
  0
VERTEX
  8
0TRANS
 10
401064.91
 20
3776346.00
  0
VERTEX
  8
0TRANS
 10
401077.47
 20
3776064.00
  0
VERTEX
  8
0TRANS
 10
401053.78
 20
3775801.00
  0
VERTEX
  8
0TRANS
 10
401000.09
 20
3775372.50
  0
VERTEX
  8
0TRANS
 10
400986.25
 20
3774849.00
  0
VERTEX
  8
0TRANS
 10
400988.38
 20
3773449.00
  0
VERTEX
  8
0TRANS
 10
400988.63
 20
3772853.50
  0
VERTEX
  8
0TRANS
 10
400979.31
 20
3772344.00
  0
VERTEX
  8
0TRANS
 10
400993.25
 20
3771420.50
  0
VERTEX
  8
0TRANS
 10
400996.13
 20
3770683.75
  0
SEQEND
  8
0TRANS
  0
POLYLINE
  8
0TRANS
 66
     1
  0
VERTEX
  8
0TRANS
 10
411720.28
 20
3777465.50
  0
VERTEX
  8
0TRANS
 10
411668.34
 20
3777341.00
  0
VERTEX
  8
0TRANS
 10
411623.41
 20
3777259.50
  0
VERTEX
  8
0TRANS
 10
411568.47
 20
3777169.00
  0
VERTEX
  8
0TRANS
 10
411482.47
 20
3777051.00
  0
VERTEX
  8
0TRANS
 10
411294.03
 20
3776816.00
  0
VERTEX
  8
0TRANS
 10
411136.03
 20
3776636.00
  0
VERTEX
  8
0TRANS
 10
410940.53
 20
3776437.00
  0
VERTEX
  8
0TRANS
 10
410585.13
 20
3776039.00
  0
VERTEX
  8
0TRANS
 10
410510.25
 20
3775964.50
  0
VERTEX
  8
0TRANS
 10
410441.19
 20
3775881.00
  0
VERTEX
  8
0TRANS
 10
410325.75
 20
3775776.00
  0
VERTEX
  8
0TRANS
 10
410002.38
 20
3775530.00
  0
VERTEX
  8
0TRANS
 10
409917.06
 20
3775452.50
  0
VERTEX
  8
0TRANS
 10
409782.69
 20
3775289.00
  0
VERTEX
  8
0TRANS
 10
409621.75
 20
3774959.00
  0
VERTEX
  8
0TRANS
 10
409302.28
 20
3774224.50
  0
VERTEX
  8
0TRANS
 10
409258.34
 20
3774108.50
  0
VERTEX
  8
0TRANS
 10
409111.03
 20
3773594.50
  0
VERTEX
  8
0TRANS
 10
409038.66
 20
3773364.00
  0
VERTEX
  8
0TRANS
 10
408953.66
 20
3773220.00
  0
VERTEX
  8
0TRANS
 10
408827.47
 20
3773064.50
  0
VERTEX
  8
0TRANS
 10
408532.28
 20
3772806.00
  0
VERTEX
  8
0TRANS
 10
408475.66
 20
3772749.00
  0
VERTEX
  8
0TRANS
 10
408411.59
 20
3772669.50
  0
VERTEX
  8
0TRANS
 10
408303.53
 20
3772528.50
  0
VERTEX
  8
0TRANS
 10
408182.97
 20
3772319.50
  0
VERTEX
  8
0TRANS
 10
408135.59
 20
3772228.50
  0
VERTEX
  8
0TRANS
 10
408077.06
 20
3772095.50
  0
VERTEX
  8
0TRANS
 10
408008.31
 20
3771887.00
  0
VERTEX
  8
0TRANS
 10
408008.94
 20
3771870.00
  0
VERTEX
  8
0TRANS
 10
407978.94
 20
3771768.50
  0
VERTEX
  8
0TRANS
 10
407947.56
 20
3771530.00
  0
VERTEX
  8
0TRANS
 10
407903.00
 20
3771069.50
  0
VERTEX
  8
0TRANS
 10
407890.44
 20
3770999.50
  0
VERTEX
  8
0TRANS
 10
407751.19
 20
3770569.50
  0
VERTEX
  8
0TRANS
 10
407665.69
 20
3770275.50
  0
VERTEX
  8
0TRANS
 10
407688.50
 20
3770075.00
  0
VERTEX
  8
0TRANS
 10
407718.13
 20
3769914.50
  0
VERTEX
  8
0TRANS
 10
407725.25
 20
3769833.00
  0
SEQEND
  8
0TRANS
  0
POLYLINE
  8
0TRANS
 66
     1
  0
VERTEX
  8
0TRANS
 10
416145.91
 20
3779081.50
  0
VERTEX
  8
0TRANS
 10
416213.41
 20
3778729.50
  0
VERTEX
  8
0TRANS
 10
416222.03
 20
3778640.50
  0
VERTEX
  8
0TRANS
 10
416187.28
 20
3776389.50
  0
VERTEX
  8
0TRANS
 10
416188.78
 20
3776298.00
  0
VERTEX
  8
0TRANS
 10
416195.28
 20
3776272.50
  0
VERTEX
  8
0TRANS
 10
416277.34
 20
3776171.00
  0
VERTEX
  8
0TRANS
 10
416300.78
 20
3776122.50
  0
VERTEX
  8
0TRANS
 10
416309.97
 20
3776085.00
  0
SEQEND
  8
0TRANS
  0
POLYLINE
  8
0TRANS
 66
     1
  0
VERTEX
  8
0TRANS
 10
416145.91
 20
3779081.50
  0
VERTEX
  8
0TRANS
 10
416163.72
 20
3779024.50
  0
VERTEX
  8
0TRANS
 10
416313.09
 20
3778708.00
  0
VERTEX
  8
0TRANS
 10
416326.41
 20
3778670.50
  0
VERTEX
  8
0TRANS
 10
416337.22
 20
3778601.00
  0
VERTEX
  8
0TRANS
 10
416305.53
 20
3776388.00
  0
VERTEX
  8
0TRANS
 10
416309.97
 20
3776085.00
  0
SEQEND
  8
0TRANS
  0
POLYLINE
  8
0TRANS
 66
     1
  0
VERTEX
  8
0TRANS
 10
416305.28
 20
3775918.00
  0
VERTEX
  8
0TRANS
 10
416582.53
 20
3775938.50
  0
VERTEX
  8
0TRANS
 10
416760.47
 20
3775955.00
  0
VERTEX
  8
0TRANS
 10
416953.78
 20
3775962.00
  0
VERTEX
  8
0TRANS
 10
416953.78
 20
3775962.00
  0
VERTEX
  8
0TRANS
 10
417585.03
 20
3775928.50
  0
VERTEX
  8
0TRANS
 10
417842.97
 20
3775937.50
  0
VERTEX
  8
0TRANS
 10
417842.97
 20
3775937.50
  0
VERTEX
  8
0TRANS
 10
418285.16
 20
3775934.50
  0
VERTEX
  8
0TRANS
 10
418529.09
 20
3775924.50
  0
VERTEX
  8
0TRANS
 10
418843.81
 20
3775934.00
  0
VERTEX
  8
0TRANS
 10
418925.06
 20
3775942.00
  0
VERTEX
  8
0TRANS
 10
418925.06
 20
3775942.00
  0
VERTEX
  8
0TRANS
 10
419099.00
 20
3775934.00
  0
VERTEX
  8
0TRANS
 10
419227.00
 20
3775920.00
  0
VERTEX
  8
0TRANS
 10
419734.13
 20
3775865.00
  0
VERTEX
  8
0TRANS
 10
419878.19
 20
3775815.50
  0
VERTEX
  8
0TRANS
 10
419951.31
 20
3775781.50
  0
VERTEX
  8
0TRANS
 10
420115.31
 20
3775689.00
  0
VERTEX
  8
0TRANS
 10
420314.00
 20
3775559.00
  0
VERTEX
  8
0TRANS
 10
420372.00
 20
3775531.50
  0
VERTEX
  8
0TRANS
 10
420482.81
 20
3775498.50
  0
VERTEX
  8
0TRANS
 10
420702.94
 20
3775482.50
  0
VERTEX
  8
0TRANS
 10
420802.13
 20
3775482.00
  0
VERTEX
  8
0TRANS
 10
420874.00
 20
3775485.00
  0
VERTEX
  8
0TRANS
 10
421236.44
 20
3775533.00
  0
VERTEX
  8
0TRANS
 10
421511.09
 20
3775537.50
  0
VERTEX
  8
0TRANS
 10
421511.09
 20
3775537.50
  0
VERTEX
  8
0TRANS
 10
421634.47
 20
3775527.00
  0
VERTEX
  8
0TRANS
 10
421779.97
 20
3775528.50
  0
VERTEX
  8
0TRANS
 10
421779.97
 20
3775528.50
  0
VERTEX
  8
0TRANS
 10
421818.84
 20
3775522.00
  0
VERTEX
  8
0TRANS
 10
421927.72
 20
3775517.00
  0
VERTEX
  8
0TRANS
 10
422052.66
 20
3775524.00
  0
VERTEX
  8
0TRANS
 10
422052.66
 20
3775524.00
  0
VERTEX
  8
0TRANS
 10
422090.28
 20
3775519.00
  0
VERTEX
  8
0TRANS
 10
422137.34
 20
3775531.00
  0
VERTEX
  8
0TRANS
 10
422369.91
 20
3775605.00
  0
VERTEX
  8
0TRANS
 10
422688.72
 20
3775772.00
  0
VERTEX
  8
0TRANS
 10
422933.53
 20
3775853.00
  0
VERTEX
  8
0TRANS
 10
423045.34
 20
3775876.00
  0
VERTEX
  8
0TRANS
 10
423275.78
 20
3775894.00
  0
VERTEX
  8
0TRANS
 10
423275.78
 20
3775894.00
  0
VERTEX
  8
0TRANS
 10
423545.91
 20
3775885.50
  0
VERTEX
  8
0TRANS
 10
423646.59
 20
3775862.50
  0
VERTEX
  8
0TRANS
 10
423680.66
 20
3775862.00
  0
SEQEND
  8
0TRANS
  0
POLYLINE
  8
0TRANS
 66
     1
  0
VERTEX
  8
0TRANS
 10
423680.66
 20
3775862.00
  0
VERTEX
  8
0TRANS
 10
423923.19
 20
3775841.50
  0
VERTEX
  8
0TRANS
 10
424724.69
 20
3775753.50
  0
VERTEX
  8
0TRANS
 10
424925.25
 20
3775737.50
  0
VERTEX
  8
0TRANS
 10
425078.00
 20
3775731.50
  0
VERTEX
  8
0TRANS
 10
425285.63
 20
3775736.50
  0
VERTEX
  8
0TRANS
 10
425285.63
 20
3775736.50
  0
VERTEX
  8
0TRANS
 10
426979.47
 20
3775715.50
  0
VERTEX
  8
0TRANS
 10
427229.16
 20
3775721.00
  0
VERTEX
  8
0TRANS
 10
427303.59
 20
3775733.00
  0
SEQEND
  8
0TRANS
  0
POLYLINE
  8
0TRANS
 66
     1
  0
VERTEX
  8
0TRANS
 10
424656.84
 20
3771401.00
  0
VERTEX
  8
0TRANS
 10
424627.91
 20
3771431.50
  0
VERTEX
  8
0TRANS
 10
424547.66
 20
3771544.50
  0
VERTEX
  8
0TRANS
 10
424440.78
 20
3771706.00
  0
VERTEX
  8
0TRANS
 10
424409.09
 20
3771774.50
  0
VERTEX
  8
0TRANS
 10
424393.59
 20
3771829.50
  0
VERTEX
  8
0TRANS
 10
424374.97
 20
3771951.00
  0
VERTEX
  8
0TRANS
 10
424370.28
 20
3772035.00
  0
VERTEX
  8
0TRANS
 10
424419.41
 20
3773432.50
  0
VERTEX
  8
0TRANS
 10
424414.34
 20
3773455.50
  0
VERTEX
  8
0TRANS
 10
424412.91
 20
3773587.00
  0
VERTEX
  8
0TRANS
 10
424384.78
 20
3773831.00
  0
VERTEX
  8
0TRANS
 10
424329.16
 20
3774000.50
  0
VERTEX
  8
0TRANS
 10
424027.22
 20
3774755.00
  0
VERTEX
  8
0TRANS
 10
424005.72
 20
3774854.00
  0
VERTEX
  8
0TRANS
 10
423990.97
 20
3774951.50
  0
VERTEX
  8
0TRANS
 10
423986.78
 20
3775030.00
  0
VERTEX
  8
0TRANS
 10
423993.97
 20
3775310.00
  0
VERTEX
  8
0TRANS
 10
424003.13
 20
3775416.50
  0
VERTEX
  8
0TRANS
 10
423977.44
 20
3775554.00
  0
VERTEX
  8
0TRANS
 10
423957.00
 20
3775606.50
  0
VERTEX
  8
0TRANS
 10
423884.63
 20
3775720.50
  0
VERTEX
  8
0TRANS
 10
423851.19
 20
3775758.00
  0
VERTEX
  8
0TRANS
 10
423783.22
 20
3775808.00
  0
VERTEX
  8
0TRANS
 10
423759.78
 20
3775825.50
  0
VERTEX
  8
0TRANS
 10
423680.66
 20
3775862.00
  0
SEQEND
  8
0TRANS
  0
POLYLINE
  8
0TRANS
 66
     1
  0
VERTEX
  8
0TRANS
 10
416305.28
 20
3775918.00
  0
VERTEX
  8
0TRANS
 10
416296.84
 20
3775498.50
  0
VERTEX
  8
0TRANS
 10
416287.88
 20
3774261.50
  0
VERTEX
  8
0TRANS
 10
416275.25
 20
3773616.50
  0
VERTEX
  8
0TRANS
 10
416244.34
 20
3770530.00
  0
SEQEND
  8
0TRANS
  0
POLYLINE
  8
0TRANS
 66
     1
  0
VERTEX
  8
0TRANS
 10
407725.25
 20
3769833.00
  0
VERTEX
  8
0TRANS
 10
407638.19
 20
3769816.00
  0
VERTEX
  8
0TRANS
 10
407320.19
 20
3769775.50
  0
VERTEX
  8
0TRANS
 10
406954.56
 20
3769719.00
  0
VERTEX
  8
0TRANS
 10
406820.84
 20
3769734.50
  0
VERTEX
  8
0TRANS
 10
406369.72
 20
3769853.50
  0
VERTEX
  8
0TRANS
 10
406223.16
 20
3769904.50
  0
VERTEX
  8
0TRANS
 10
406088.97
 20
3769966.00
  0
VERTEX
  8
0TRANS
 10
405885.03
 20
3770081.00
  0
VERTEX
  8
0TRANS
 10
405817.91
 20
3770112.00
  0
VERTEX
  8
0TRANS
 10
405744.09
 20
3770142.50
  0
VERTEX
  8
0TRANS
 10
405611.22
 20
3770171.00
  0
VERTEX
  8
0TRANS
 10
405462.84
 20
3770182.00
  0
VERTEX
  8
0TRANS
 10
405462.84
 20
3770182.00
  0
VERTEX
  8
0TRANS
 10
405225.09
 20
3770163.00
  0
VERTEX
  8
0TRANS
 10
405189.22
 20
3770169.00
  0
VERTEX
  8
0TRANS
 10
404688.16
 20
3770170.00
  0
VERTEX
  8
0TRANS
 10
404477.03
 20
3770180.50
  0
VERTEX
  8
0TRANS
 10
404385.16
 20
3770186.00
  0
VERTEX
  8
0TRANS
 10
404194.41
 20
3770210.50
  0
VERTEX
  8
0TRANS
 10
403888.91
 20
3770260.00
  0
VERTEX
  8
0TRANS
 10
403680.72
 20
3770303.00
  0
VERTEX
  8
0TRANS
 10
403609.84
 20
3770324.00
  0
VERTEX
  8
0TRANS
 10
403442.38
 20
3770401.50
  0
VERTEX
  8
0TRANS
 10
403152.00
 20
3770558.50
  0
VERTEX
  8
0TRANS
 10
402915.56
 20
3770662.50
  0
VERTEX
  8
0TRANS
 10
402847.69
 20
3770680.50
  0
VERTEX
  8
0TRANS
 10
402742.50
 20
3770692.00
  0
VERTEX
  8
0TRANS
 10
402601.88
 20
3770693.00
  0
VERTEX
  8
0TRANS
 10
400996.13
 20
3770683.75
  0
SEQEND
  8
0TRANS
  0
POLYLINE
  8
0TRANS
 66
     1
  0
VERTEX
  8
0TRANS
 10
392473.84
 20
3769563.75
  0
VERTEX
  8
0TRANS
 10
392551.78
 20
3769573.25
  0
VERTEX
  8
0TRANS
 10
392682.34
 20
3769631.25
  0
VERTEX
  8
0TRANS
 10
392767.91
 20
3769703.25
  0
VERTEX
  8
0TRANS
 10
393020.03
 20
3769888.75
  0
VERTEX
  8
0TRANS
 10
394079.16
 20
3770543.25
  0
VERTEX
  8
0TRANS
 10
394167.84
 20
3770593.25
  0
VERTEX
  8
0TRANS
 10
394366.47
 20
3770680.75
  0
VERTEX
  8
0TRANS
 10
394484.78
 20
3770692.75
  0
VERTEX
  8
0TRANS
 10
394484.78
 20
3770692.75
  0
VERTEX
  8
0TRANS
 10
394535.91
 20
3770691.25
  0
VERTEX
  8
0TRANS
 10
394637.41
 20
3770674.75
  0
VERTEX
  8
0TRANS
 10
394774.94
 20
3770669.75
  0
VERTEX
  8
0TRANS
 10
396110.50
 20
3770669.75
  0
VERTEX
  8
0TRANS
 10
398794.97
 20
3770680.25
  0
VERTEX
  8
0TRANS
 10
400786.69
 20
3770684.75
  0
VERTEX
  8
0TRANS
 10
400996.13
 20
3770683.75
  0
SEQEND
  8
0TRANS
  0
POLYLINE
  8
0TRANS
 66
     1
  0
VERTEX
  8
0TRANS
 10
423406.56
 20
3769719.00
  0
VERTEX
  8
0TRANS
 10
423269.50
 20
3769828.50
  0
VERTEX
  8
0TRANS
 10
423198.25
 20
3769864.00
  0
VERTEX
  8
0TRANS
 10
422748.31
 20
3770036.50
  0
VERTEX
  8
0TRANS
 10
422511.50
 20
3770108.50
  0
VERTEX
  8
0TRANS
 10
422440.44
 20
3770120.00
  0
VERTEX
  8
0TRANS
 10
422358.94
 20
3770122.00
  0
VERTEX
  8
0TRANS
 10
422358.94
 20
3770122.00
  0
VERTEX
  8
0TRANS
 10
422003.63
 20
3770064.00
  0
VERTEX
  8
0TRANS
 10
421830.50
 20
3770047.00
  0
VERTEX
  8
0TRANS
 10
421451.03
 20
3770073.00
  0
VERTEX
  8
0TRANS
 10
421397.53
 20
3770078.00
  0
VERTEX
  8
0TRANS
 10
421397.53
 20
3770078.00
  0
VERTEX
  8
0TRANS
 10
421245.28
 20
3770075.50
  0
VERTEX
  8
0TRANS
 10
421137.84
 20
3770055.50
  0
VERTEX
  8
0TRANS
 10
420879.34
 20
3770033.50
  0
VERTEX
  8
0TRANS
 10
420834.91
 20
3770033.00
  0
VERTEX
  8
0TRANS
 10
420689.09
 20
3770049.50
  0
VERTEX
  8
0TRANS
 10
420573.41
 20
3770086.50
  0
VERTEX
  8
0TRANS
 10
420502.16
 20
3770120.50
  0
VERTEX
  8
0TRANS
 10
420396.66
 20
3770180.50
  0
VERTEX
  8
0TRANS
 10
420251.66
 20
3770280.00
  0
VERTEX
  8
0TRANS
 10
420123.16
 20
3770349.00
  0
VERTEX
  8
0TRANS
 10
420019.22
 20
3770396.00
  0
VERTEX
  8
0TRANS
 10
419893.91
 20
3770437.50
  0
VERTEX
  8
0TRANS
 10
419809.03
 20
3770458.00
  0
VERTEX
  8
0TRANS
 10
419180.28
 20
3770467.00
  0
VERTEX
  8
0TRANS
 10
418063.25
 20
3770490.50
  0
VERTEX
  8
0TRANS
 10
416244.34
 20
3770530.00
  0
SEQEND
  8
0TRANS
  0
POLYLINE
  8
0TRANS
 66
     1
  0
VERTEX
  8
0TRANS
 10
416244.34
 20
3770530.00
  0
VERTEX
  8
0TRANS
 10
414342.16
 20
3770577.50
  0
VERTEX
  8
0TRANS
 10
414342.16
 20
3770577.50
  0
VERTEX
  8
0TRANS
 10
414002.22
 20
3770575.50
  0
VERTEX
  8
0TRANS
 10
413286.44
 20
3770595.50
  0
VERTEX
  8
0TRANS
 10
413286.44
 20
3770595.50
  0
VERTEX
  8
0TRANS
 10
413120.38
 20
3770584.00
  0
VERTEX
  8
0TRANS
 10
411274.41
 20
3770369.50
  0
VERTEX
  8
0TRANS
 10
410994.47
 20
3770321.00
  0
VERTEX
  8
0TRANS
 10
410556.28
 20
3770258.00
  0
VERTEX
  8
0TRANS
 10
407725.25
 20
3769833.00
  0
SEQEND
  8
0TRANS
  0
POLYLINE
  8
0TRANS
 66
     1
  0
VERTEX
  8
0TRANS
 10
400996.13
 20
3770683.75
  0
VERTEX
  8
0TRANS
 10
400999.94
 20
3770580.25
  0
VERTEX
  8
0TRANS
 10
401010.50
 20
3770516.25
  0
VERTEX
  8
0TRANS
 10
401063.25
 20
3770385.75
  0
VERTEX
  8
0TRANS
 10
401091.25
 20
3770346.25
  0
VERTEX
  8
0TRANS
 10
401582.81
 20
3769785.75
  0
VERTEX
  8
0TRANS
 10
401663.94
 20
3769678.25
  0
VERTEX
  8
0TRANS
 10
401709.88
 20
3769583.75
  0
VERTEX
  8
0TRANS
 10
401759.81
 20
3769427.75
  0
VERTEX
  8
0TRANS
 10
401780.31
 20
3769265.25
  0
VERTEX
  8
0TRANS
 10
401770.00
 20
3768347.75
  0
VERTEX
  8
0TRANS
 10
401773.97
 20
3768024.25
  0
VERTEX
  8
0TRANS
 10
401760.84
 20
3767238.75
  0
SEQEND
  8
0TRANS
  0
POLYLINE
  8
0TRANS
 66
     1
  0
VERTEX
  8
0TRANS
 10
416244.34
 20
3770530.00
  0
VERTEX
  8
0TRANS
 10
416235.78
 20
3769784.50
  0
VERTEX
  8
0TRANS
 10
416225.53
 20
3769712.00
  0
VERTEX
  8
0TRANS
 10
416231.03
 20
3769426.00
  0
VERTEX
  8
0TRANS
 10
416202.66
 20
3768537.50
  0
VERTEX
  8
0TRANS
 10
416200.91
 20
3768005.00
  0
VERTEX
  8
0TRANS
 10
416176.78
 20
3767745.50
  0
VERTEX
  8
0TRANS
 10
416163.28
 20
3767685.00
  0
VERTEX
  8
0TRANS
 10
416120.97
 20
3767601.00
  0
VERTEX
  8
0TRANS
 10
415827.16
 20
3767174.50
  0
VERTEX
  8
0TRANS
 10
415770.00
 20
3767082.50
  0
VERTEX
  8
0TRANS
 10
415756.19
 20
3767050.50
  0
VERTEX
  8
0TRANS
 10
415742.50
 20
3766984.50
  0
VERTEX
  8
0TRANS
 10
415728.31
 20
3766770.00
  0
VERTEX
  8
0TRANS
 10
415730.38
 20
3766719.50
  0
VERTEX
  8
0TRANS
 10
415722.06
 20
3766420.50
  0
VERTEX
  8
0TRANS
 10
415706.44
 20
3766332.00
  0
VERTEX
  8
0TRANS
 10
415694.31
 20
3766295.00
  0
VERTEX
  8
0TRANS
 10
415561.56
 20
3766029.00
  0
VERTEX
  8
0TRANS
 10
415448.75
 20
3765777.00
  0
VERTEX
  8
0TRANS
 10
415419.75
 20
3765671.50
  0
VERTEX
  8
0TRANS
 10
415057.56
 20
3764610.50
  0
VERTEX
  8
0TRANS
 10
414991.56
 20
3764394.50
  0
VERTEX
  8
0TRANS
 10
414908.00
 20
3764257.00
  0
VERTEX
  8
0TRANS
 10
414813.28
 20
3764076.50
  0
VERTEX
  8
0TRANS
 10
414744.41
 20
3763923.50
  0
VERTEX
  8
0TRANS
 10
414716.03
 20
3763834.50
  0
VERTEX
  8
0TRANS
 10
414700.03
 20
3763753.50
  0
VERTEX
  8
0TRANS
 10
414678.41
 20
3763705.50
  0
VERTEX
  8
0TRANS
 10
414574.84
 20
3763571.50
  0
VERTEX
  8
0TRANS
 10
414438.59
 20
3763464.00
  0
VERTEX
  8
0TRANS
 10
414259.34
 20
3763335.00
  0
VERTEX
  8
0TRANS
 10
414177.72
 20
3763240.50
  0
VERTEX
  8
0TRANS
 10
414150.84
 20
3763187.50
  0
VERTEX
  8
0TRANS
 10
414115.59
 20
3763094.00
  0
VERTEX
  8
0TRANS
 10
414109.59
 20
3763056.00
  0
VERTEX
  8
0TRANS
 10
414054.09
 20
3762547.50
  0
VERTEX
  8
0TRANS
 10
414018.28
 20
3762204.00
  0
SEQEND
  8
0TRANS
  0
POLYLINE
  8
0TRANS
 66
     1
  0
VERTEX
  8
0TRANS
 10
407725.25
 20
3769833.00
  0
VERTEX
  8
0TRANS
 10
407731.88
 20
3769696.50
  0
VERTEX
  8
0TRANS
 10
407720.63
 20
3769611.00
  0
VERTEX
  8
0TRANS
 10
407688.50
 20
3769463.00
  0
VERTEX
  8
0TRANS
 10
407634.06
 20
3769394.50
  0
VERTEX
  8
0TRANS
 10
407584.25
 20
3769189.50
  0
VERTEX
  8
0TRANS
 10
407555.00
 20
3769111.50
  0
VERTEX
  8
0TRANS
 10
407164.78
 20
3768314.00
  0
VERTEX
  8
0TRANS
 10
406866.78
 20
3767686.00
  0
VERTEX
  8
0TRANS
 10
406824.66
 20
3767603.00
  0
VERTEX
  8
0TRANS
 10
406726.84
 20
3767462.50
  0
VERTEX
  8
0TRANS
 10
406666.22
 20
3767402.50
  0
VERTEX
  8
0TRANS
 10
406540.28
 20
3767295.00
  0
VERTEX
  8
0TRANS
 10
406487.97
 20
3767260.00
  0
VERTEX
  8
0TRANS
 10
406355.28
 20
3767186.00
  0
VERTEX
  8
0TRANS
 10
406282.41
 20
3767156.50
  0
VERTEX
  8
0TRANS
 10
405803.22
 20
3766928.50
  0
VERTEX
  8
0TRANS
 10
405688.19
 20
3766856.00
  0
VERTEX
  8
0TRANS
 10
405552.94
 20
3766736.00
  0
VERTEX
  8
0TRANS
 10
405186.00
 20
3766404.50
  0
SEQEND
  8
0TRANS
  0
POLYLINE
  8
0TRANS
 66
     1
  0
VERTEX
  8
0TRANS
 10
401760.84
 20
3767238.75
  0
VERTEX
  8
0TRANS
 10
402071.97
 20
3767237.75
  0
VERTEX
  8
0TRANS
 10
402188.16
 20
3767227.75
  0
VERTEX
  8
0TRANS
 10
402446.06
 20
3767173.75
  0
VERTEX
  8
0TRANS
 10
403058.13
 20
3767029.75
  0
VERTEX
  8
0TRANS
 10
403319.69
 20
3766975.50
  0
VERTEX
  8
0TRANS
 10
403644.81
 20
3766897.00
  0
VERTEX
  8
0TRANS
 10
404282.63
 20
3766764.00
  0
VERTEX
  8
0TRANS
 10
404498.00
 20
3766714.00
  0
VERTEX
  8
0TRANS
 10
404693.75
 20
3766657.50
  0
VERTEX
  8
0TRANS
 10
404943.44
 20
3766545.00
  0
VERTEX
  8
0TRANS
 10
405186.00
 20
3766404.50
  0
SEQEND
  8
0TRANS
  0
POLYLINE
  8
0TRANS
 66
     1
  0
VERTEX
  8
0TRANS
 10
405186.00
 20
3766404.50
  0
VERTEX
  8
0TRANS
 10
405855.13
 20
3766020.50
  0
VERTEX
  8
0TRANS
 10
406056.25
 20
3765919.00
  0
VERTEX
  8
0TRANS
 10
406132.63
 20
3765895.00
  0
VERTEX
  8
0TRANS
 10
406216.31
 20
3765874.50
  0
VERTEX
  8
0TRANS
 10
406305.00
 20
3765863.50
  0
VERTEX
  8
0TRANS
 10
406491.41
 20
3765867.50
  0
VERTEX
  8
0TRANS
 10
406491.41
 20
3765867.50
  0
VERTEX
  8
0TRANS
 10
406719.53
 20
3765854.50
  0
VERTEX
  8
0TRANS
 10
407053.16
 20
3765850.50
  0
VERTEX
  8
0TRANS
 10
407300.66
 20
3765832.00
  0
VERTEX
  8
0TRANS
 10
407519.91
 20
3765796.00
  0
VERTEX
  8
0TRANS
 10
407598.53
 20
3765770.00
  0
VERTEX
  8
0TRANS
 10
407679.91
 20
3765739.00
  0
VERTEX
  8
0TRANS
 10
407798.41
 20
3765693.00
  0
VERTEX
  8
0TRANS
 10
407929.53
 20
3765620.00
  0
VERTEX
  8
0TRANS
 10
408038.59
 20
3765544.50
  0
VERTEX
  8
0TRANS
 10
408115.22
 20
3765483.00
  0
VERTEX
  8
0TRANS
 10
408275.97
 20
3765348.00
  0
VERTEX
  8
0TRANS
 10
408356.97
 20
3765270.50
  0
VERTEX
  8
0TRANS
 10
408706.16
 20
3764835.50
  0
VERTEX
  8
0TRANS
 10
409242.72
 20
3764145.00
  0
VERTEX
  8
0TRANS
 10
409320.53
 20
3764064.00
  0
VERTEX
  8
0TRANS
 10
409507.34
 20
3763904.00
  0
VERTEX
  8
0TRANS
 10
409649.53
 20
3763835.50
  0
VERTEX
  8
0TRANS
 10
410671.13
 20
3763435.00
  0
VERTEX
  8
0TRANS
 10
411383.38
 20
3763171.00
  0
VERTEX
  8
0TRANS
 10
411573.50
 20
3763098.00
  0
VERTEX
  8
0TRANS
 10
411709.88
 20
3763037.50
  0
VERTEX
  8
0TRANS
 10
412114.00
 20
3762892.50
  0
VERTEX
  8
0TRANS
 10
412850.19
 20
3762615.50
  0
VERTEX
  8
0TRANS
 10
412991.56
 20
3762557.00
  0
VERTEX
  8
0TRANS
 10
413758.97
 20
3762275.50
  0
VERTEX
  8
0TRANS
 10
413899.09
 20
3762229.00
  0
VERTEX
  8
0TRANS
 10
414018.28
 20
3762204.00
  0
SEQEND
  8
0TRANS
  0
POLYLINE
  8
0TRANS
 66
     1
  0
VERTEX
  8
0TRANS
 10
401760.84
 20
3767238.75
  0
VERTEX
  8
0TRANS
 10
401758.09
 20
3766679.75
  0
VERTEX
  8
0TRANS
 10
401726.59
 20
3766499.25
  0
VERTEX
  8
0TRANS
 10
401701.09
 20
3766429.25
  0
VERTEX
  8
0TRANS
 10
401551.03
 20
3766103.75
  0
VERTEX
  8
0TRANS
 10
401210.22
 20
3765454.25
  0
VERTEX
  8
0TRANS
 10
401044.47
 20
3765166.50
  0
VERTEX
  8
0TRANS
 10
400979.25
 20
3765105.50
  0
VERTEX
  8
0TRANS
 10
400845.53
 20
3765014.25
  0
SEQEND
  8
0TRANS
  0
POLYLINE
  8
0TRANS
 66
     1
  0
VERTEX
  8
0TRANS
 10
424905.94
 20
3764924.50
  0
VERTEX
  8
0TRANS
 10
424877.75
 20
3764884.00
  0
VERTEX
  8
0TRANS
 10
424610.69
 20
3764498.00
  0
VERTEX
  8
0TRANS
 10
424401.34
 20
3764145.00
  0
VERTEX
  8
0TRANS
 10
424257.22
 20
3763937.00
  0
VERTEX
  8
0TRANS
 10
424117.34
 20
3763762.00
  0
VERTEX
  8
0TRANS
 10
423924.28
 20
3763542.00
  0
VERTEX
  8
0TRANS
 10
423891.91
 20
3763497.50
  0
VERTEX
  8
0TRANS
 10
423811.34
 20
3763415.00
  0
VERTEX
  8
0TRANS
 10
423564.28
 20
3763130.00
  0
VERTEX
  8
0TRANS
 10
423340.72
 20
3762940.00
  0
VERTEX
  8
0TRANS
 10
423147.47
 20
3762817.50
  0
SEQEND
  8
0TRANS
  0
POLYLINE
  8
0TRANS
 66
     1
  0
VERTEX
  8
0TRANS
 10
423147.47
 20
3762817.50
  0
VERTEX
  8
0TRANS
 10
422859.41
 20
3762702.50
  0
VERTEX
  8
0TRANS
 10
422713.94
 20
3762669.50
  0
VERTEX
  8
0TRANS
 10
422486.56
 20
3762650.50
  0
VERTEX
  8
0TRANS
 10
422416.69
 20
3762657.00
  0
VERTEX
  8
0TRANS
 10
422416.69
 20
3762657.00
  0
VERTEX
  8
0TRANS
 10
422161.00
 20
3762620.00
  0
VERTEX
  8
0TRANS
 10
421934.19
 20
3762564.50
  0
VERTEX
  8
0TRANS
 10
421706.63
 20
3762479.50
  0
VERTEX
  8
0TRANS
 10
419108.16
 20
3762038.00
  0
VERTEX
  8
0TRANS
 10
418489.34
 20
3761907.50
  0
VERTEX
  8
0TRANS
 10
418233.16
 20
3761876.50
  0
VERTEX
  8
0TRANS
 10
418027.72
 20
3761872.50
  0
VERTEX
  8
0TRANS
 10
417215.00
 20
3761884.00
  0
VERTEX
  8
0TRANS
 10
417215.00
 20
3761884.00
  0
VERTEX
  8
0TRANS
 10
416887.88
 20
3761877.50
  0
VERTEX
  8
0TRANS
 10
416573.19
 20
3761881.00
  0
VERTEX
  8
0TRANS
 10
416109.19
 20
3761877.00
  0
VERTEX
  8
0TRANS
 10
415927.38
 20
3761891.50
  0
VERTEX
  8
0TRANS
 10
415823.19
 20
3761906.00
  0
VERTEX
  8
0TRANS
 10
415632.13
 20
3761944.50
  0
VERTEX
  8
0TRANS
 10
414927.97
 20
3762050.50
  0
VERTEX
  8
0TRANS
 10
414018.28
 20
3762204.00
  0
SEQEND
  8
0TRANS
  0
POLYLINE
  8
0TRANS
 66
     1
  0
VERTEX
  8
0TRANS
 10
423147.47
 20
3762817.50
  0
VERTEX
  8
0TRANS
 10
422984.03
 20
3762726.50
  0
VERTEX
  8
0TRANS
 10
422868.09
 20
3762640.00
  0
VERTEX
  8
0TRANS
 10
422803.19
 20
3762582.50
  0
VERTEX
  8
0TRANS
 10
422765.31
 20
3762539.50
  0
VERTEX
  8
0TRANS
 10
422724.44
 20
3762473.00
  0
VERTEX
  8
0TRANS
 10
422456.88
 20
3762125.00
  0
VERTEX
  8
0TRANS
 10
422399.63
 20
3762066.50
  0
VERTEX
  8
0TRANS
 10
422345.81
 20
3761972.00
  0
VERTEX
  8
0TRANS
 10
422241.00
 20
3761733.00
  0
VERTEX
  8
0TRANS
 10
422189.69
 20
3761565.50
  0
VERTEX
  8
0TRANS
 10
422162.75
 20
3761442.50
  0
VERTEX
  8
0TRANS
 10
422129.34
 20
3760889.50
  0
VERTEX
  8
0TRANS
 10
422164.13
 20
3760720.75
  0
SEQEND
  8
0TRANS
  0
POLYLINE
  8
0TRANS
 66
     1
  0
VERTEX
  8
0TRANS
 10
414018.28
 20
3762204.00
  0
VERTEX
  8
0TRANS
 10
413964.16
 20
3761702.50
  0
VERTEX
  8
0TRANS
 10
413943.28
 20
3761562.50
  0
VERTEX
  8
0TRANS
 10
413897.78
 20
3761552.00
  0
VERTEX
  8
0TRANS
 10
413839.66
 20
3761549.00
  0
VERTEX
  8
0TRANS
 10
413101.16
 20
3761595.50
  0
VERTEX
  8
0TRANS
 10
413101.16
 20
3761595.50
  0
VERTEX
  8
0TRANS
 10
412967.72
 20
3761587.50
  0
VERTEX
  8
0TRANS
 10
412902.53
 20
3761569.50
  0
VERTEX
  8
0TRANS
 10
412740.84
 20
3761499.50
  0
VERTEX
  8
0TRANS
 10
412448.63
 20
3761284.50
  0
VERTEX
  8
0TRANS
 10
412328.25
 20
3761204.00
  0
VERTEX
  8
0TRANS
 10
412246.00
 20
3761160.00
  0
VERTEX
  8
0TRANS
 10
411929.63
 20
3761037.00
  0
VERTEX
  8
0TRANS
 10
411781.25
 20
3760962.50
  0
VERTEX
  8
0TRANS
 10
411649.88
 20
3760883.50
  0
VERTEX
  8
0TRANS
 10
411444.00
 20
3760725.00
  0
VERTEX
  8
0TRANS
 10
411257.13
 20
3760598.00
  0
VERTEX
  8
0TRANS
 10
411198.31
 20
3760564.50
  0
VERTEX
  8
0TRANS
 10
411060.50
 20
3760497.50
  0
VERTEX
  8
0TRANS
 10
410924.38
 20
3760477.50
  0
VERTEX
  8
0TRANS
 10
410854.69
 20
3760477.50
  0
VERTEX
  8
0TRANS
 10
410813.44
 20
3760490.00
  0
VERTEX
  8
0TRANS
 10
410452.88
 20
3760547.50
  0
VERTEX
  8
0TRANS
 10
410363.69
 20
3760548.50
  0
VERTEX
  8
0TRANS
 10
410363.69
 20
3760548.50
  0
VERTEX
  8
0TRANS
 10
410217.75
 20
3760530.00
  0
VERTEX
  8
0TRANS
 10
409855.88
 20
3760445.00
  0
VERTEX
  8
0TRANS
 10
409703.75
 20
3760422.00
  0
VERTEX
  8
0TRANS
 10
409584.06
 20
3760373.50
  0
VERTEX
  8
0TRANS
 10
409525.25
 20
3760339.00
  0
VERTEX
  8
0TRANS
 10
409408.38
 20
3760226.50
  0
VERTEX
  8
0TRANS
 10
409289.06
 20
3760086.00
  0
VERTEX
  8
0TRANS
 10
409195.06
 20
3759954.50
  0
SEQEND
  8
0TRANS
  0
POLYLINE
  8
0TRANS
 66
     1
  0
VERTEX
  8
0TRANS
 10
398401.31
 20
3766654.25
  0
VERTEX
  8
0TRANS
 10
398836.13
 20
3766648.75
  0
VERTEX
  8
0TRANS
 10
398891.56
 20
3766649.25
  0
VERTEX
  8
0TRANS
 10
399017.25
 20
3766664.25
  0
VERTEX
  8
0TRANS
 10
399097.25
 20
3766680.75
  0
VERTEX
  8
0TRANS
 10
399856.28
 20
3766892.75
  0
VERTEX
  8
0TRANS
 10
399937.72
 20
3766920.75
  0
VERTEX
  8
0TRANS
 10
400337.47
 20
3767093.25
  0
VERTEX
  8
0TRANS
 10
400624.91
 20
3767176.75
  0
VERTEX
  8
0TRANS
 10
400797.03
 20
3767200.75
  0
VERTEX
  8
0TRANS
 10
401133.28
 20
3767247.25
  0
VERTEX
  8
0TRANS
 10
401261.84
 20
3767256.25
  0
VERTEX
  8
0TRANS
 10
401261.84
 20
3767256.25
  0
VERTEX
  8
0TRANS
 10
401610.47
 20
3767239.25
  0
VERTEX
  8
0TRANS
 10
401760.84
 20
3767238.75
  0
SEQEND
  8
0TRANS
  0
ENDSEC
  0
EOF
